# xmcd
#
# Track frame offsets:
#	150
#	17928
#	34918
#	53895
#	67839
#	83272
#	105243
#	123443
#	142777
#	163696
#	188415
#	207647
#
# Disc length: 2973 seconds
#
# Revision: 1
# Processed by: cddbd v1.5.2PL0 Copyright (c) Steve Scherf et al.
# Submitted via: audiograbber 1.81.02
#
DISCID=920b9b0c
DTITLE=Charlie Daniels - The Ultimate Collection CD2
DYEAR=2006
DGENRE=Gospel
TTITLE0=The Business Of Love
TTITLE1=Somebody Was Prayin' For Me
TTITLE2=Jesus Died For You
TTITLE3=Sunday Morning
TTITLE4=New Pharisees
TTITLE5=Praying To The Wrong God
TTITLE6=Two Out Of Three
TTITLE7=End Of The World
TTITLE8=Tribulation
TTITLE9=Lay It On The Line
TTITLE10=Heart Of My Heart
TTITLE11=Jesus
EXTD=
EXTT0=
EXTT1=
EXTT2=
EXTT3=
EXTT4=
EXTT5=
EXTT6=
EXTT7=
EXTT8=
EXTT9=
EXTT10=
EXTT11=
PLAYORDER=
